<?xml version="1.0" encoding="utf-8"?>
<!-- Generator: Adobe Illustrator 16.0.0, SVG Export Plug-In . SVG Version: 6.00 Build 0)  -->
<!DOCTYPE svg PUBLIC "-//W3C//DTD SVG 1.1//EN" "http://www.w3.org/Graphics/SVG/1.1/DTD/svg11.dtd">
<svg version="1.1" id="Layer_1" xmlns="http://www.w3.org/2000/svg" xmlns:xlink="http://www.w3.org/1999/xlink" x="0px" y="0px"
	 width="205.5px" height="32px" viewBox="0 0 205.5 32" enable-background="new 0 0 205.5 32" xml:space="preserve">
<g>
	<path fill="#FFFFFF" d="M104.567,14.3h4.456v-0.704h-5.042v6.448h5.159v-0.586h-4.573v-2.462h4.339V16.41h-4.339V14.3z"/>
	<path fill="#FFFFFF" d="M121.919,13.596h-1.056l-2.814,5.627l-2.813-5.627h-1.056v6.448h0.704v-5.51l0,0l2.813,5.51h0.703
		l2.814-5.51v5.51h0.703V13.596z"/>
	<path fill="#FFFFFF" d="M129.071,14.3v-0.704h-5.041v6.448h5.158v-0.586h-4.454v-2.462h4.22V16.41h-4.22V14.3H129.071z"/>
	<path fill="#FFFFFF" d="M138.567,13.596h-0.937l-2.814,5.627l-2.931-5.627h-0.938v6.448h0.704v-5.51l2.813,5.51h0.587l2.813-5.51
		v5.51h0.703V13.596z"/>
	<path fill="#FFFFFF" d="M144.313,13.596h-3.635v6.448h3.518c1.406,0,2.11-0.586,2.11-1.758c0-0.938-0.469-1.524-1.291-1.642
		c0.704-0.234,1.056-0.704,1.056-1.407C146.071,14.183,145.485,13.596,144.313,13.596z M144.196,14.3
		c0.819-0.117,1.173,0.234,1.289,0.938c-0.116,0.821-0.586,1.173-1.523,1.173h-2.696V14.3H144.196z M144.313,16.996
		c0.82,0,1.289,0.469,1.289,1.29c0,0.821-0.469,1.172-1.523,1.172h-2.813v-2.462H144.313z"/>
	<path fill="#FFFFFF" d="M160.843,15.355c0-1.172-0.703-1.759-1.992-1.759h-3.518v6.448h0.587v-2.813h2.696
		c0.938,0,1.523,0.469,1.523,1.524c0,0.469,0,0.938,0.117,1.29h0.704l-0.234-1.29c0-1.172-0.352-1.759-1.056-1.759
		C160.493,16.762,160.843,16.176,160.843,15.355z M158.851,14.3c0.938-0.117,1.289,0.234,1.289,1.055s-0.469,1.29-1.289,1.29h-2.931
		V14.3H158.851z"/>
	<path fill="#FFFFFF" d="M153.34,14.3v-0.704h-5.041v6.448h5.159v-0.586h-4.573v-2.462h4.337V16.41h-4.337V14.3H153.34z"/>
	<path fill="#D9D9D9" d="M170.927,13.948l-3.283,0.117l3.165,1.876l3.284-1.641L170.927,13.948z"/>
	<path fill="#262626" d="M170.809,15.941l-0.117,3.752l1.876-2.58l1.525-2.813L170.809,15.941z"/>
	<path fill="#9E9E9E" d="M170.692,19.694l0.117-3.752l-3.165-1.876l1.406,2.931L170.692,19.694z"/>
	<path fill="#D9D9D9" d="M179.369,11.252v3.166l0.47,3.166l1.641-3.283L179.369,11.252z"/>
	<path fill="#262626" d="M185.114,14.065l-3.635,0.235l-1.641,3.283l2.695-1.642L185.114,14.065z"/>
	<path fill="#9E9E9E" d="M181.479,14.3l3.635-0.235l-2.813-1.641l-2.932-1.172L181.479,14.3z"/>
	<path fill="#9E9E9E" d="M178.197,13.831l-0.703-3.166l-1.056-2.931l-0.939,3.518L178.197,13.831z"/>
	<path fill="#262626" d="M175.031,13.245l3.166,0.586l-2.698-2.58l-3.517,1.055L175.031,13.245z"/>
	<path fill="#D9D9D9" d="M176.438,7.734l-2.462,2.11l-1.994,2.462l3.517-1.055L176.438,7.734z"/>
	<path fill="#9E9E9E" d="M182.534,21.1l0.118-3.165l-2.228,2.931l1.289,3.4L182.534,21.1z"/>
	<path fill="#D9D9D9" d="M180.424,20.866l2.228-2.931l-3.05,0.938l-2.813,1.407L180.424,20.866z"/>
	<path fill="#262626" d="M176.79,20.28l2.345,2.228l2.579,1.759l-1.289-3.4L176.79,20.28z"/>
	<path fill="#262626" d="M177.375,23.094h-0.118l-3.399-1.173l-2.813,2.345l3.164-0.352l3.048-0.703L177.375,23.094z"/>
	<path fill="#9E9E9E" d="M177.257,23.094l-1.759-2.58l-2.345-2.228l0.704,3.634L177.257,23.094z"/>
	<path fill="#9E9E9E" d="M177.257,23.211h0.118v-0.117L177.257,23.211z"/>
	<path fill="#D9D9D9" d="M171.045,24.266l2.813-2.345l-0.704-3.634L171.045,24.266z"/>
	<path fill="#FFFFFF" d="M18.628,13.596h-0.821l-2.931,6.448h0.703l0.938-1.876h3.399l0.82,1.876h0.704L18.628,13.596z
		 M19.566,17.583h-2.813l1.406-3.283L19.566,17.583z"/>
	<path fill="#FFFFFF" d="M30.704,15.472h0.587c-0.117-1.29-0.938-1.993-2.697-1.993c-1.758,0-2.579,0.586-2.579,1.876
		c0,0.821,0.821,1.407,2.345,1.758c1.642,0.118,2.345,0.586,2.462,1.173c-0.117,0.938-0.703,1.29-1.992,1.29
		c-1.407,0-2.229-0.469-2.229-1.641h-0.703c0.117,1.524,1.056,2.345,2.932,2.345c1.759,0,2.696-0.704,2.696-1.993
		c0-0.938-0.821-1.524-2.345-1.759c-1.642-0.235-2.345-0.704-2.345-1.29c0-0.82,0.586-1.172,1.758-1.172
		C29.883,14.065,30.587,14.534,30.704,15.472z"/>
	<path fill="#FFFFFF" d="M35.746,14.3h2.462v-0.704H32.58V14.3h2.463v5.745h0.703V14.3z"/>
	<path fill="#FFFFFF" d="M42.428,13.596h-0.82l-2.931,6.448h0.703l0.938-1.876h3.4l0.82,1.876h0.704L42.428,13.596z M43.367,17.583
		h-2.813l1.406-3.283L43.367,17.583z"/>
	<path fill="#FFFFFF" d="M50.284,13.596h-3.399v6.448h0.586v-2.813h2.579c1.056,0,1.524,0.469,1.524,1.524l0.234,1.29h0.703
		c-0.117-0.117-0.234-0.586-0.234-1.29c0-1.172-0.469-1.759-1.056-1.759c0.821-0.234,1.173-0.82,1.173-1.641
		C52.394,14.183,51.691,13.596,50.284,13.596z M50.401,14.3c0.82-0.117,1.29,0.234,1.29,1.055s-0.47,1.29-1.407,1.29H47.47V14.3
		H50.401z"/>
	<path fill="#FFFFFF" d="M60.718,13.596h-0.82l-2.931,6.448h0.702l0.821-1.876h3.4l0.938,1.876h0.703L60.718,13.596z M61.657,17.583
		h-2.814L60.25,14.3L61.657,17.583z"/>
	<path fill="#FFFFFF" d="M65.643,13.596h-0.704v6.448h4.808v-0.586h-4.104V13.596z"/>
	<path fill="#FFFFFF" d="M71.857,13.596h-0.704v6.448h4.808v-0.586h-4.104V13.596z"/>
	<path fill="#FFFFFF" d="M78.071,13.596h-0.586v6.448h0.586V13.596z"/>
	<path fill="#FFFFFF" d="M101.871,15.824c-0.117-1.524-1.172-2.345-3.048-2.345c-1.173,0-1.993,0.469-2.696,1.172
		c-0.469,0.586-0.821,1.29-0.821,2.228c0,2.228,1.173,3.283,3.518,3.4c1.876,0,2.931-0.938,3.166-2.58h-0.704
		c-0.234,1.29-1.055,1.876-2.462,1.876c-1.876,0-2.696-0.938-2.696-2.697c0-1.875,0.82-2.814,2.696-2.814
		c1.407,0,2.228,0.586,2.462,1.759H101.871z"/>
	<path fill="#FFFFFF" d="M88.388,13.596h-0.821v6.448h0.704v-5.393l0,0l4.455,5.393h0.82v-6.448h-0.703v5.511L88.388,13.596z"/>
	<path fill="#FFFFFF" d="M83.229,13.596h-0.703l-2.932,6.448h0.704l0.82-1.876h3.4l0.82,1.876h0.821L83.229,13.596z M84.285,17.583
		H81.47l1.407-3.283L84.285,17.583z"/>
	<path fill="#FFFFFF" d="M187.576,12.073v1.524h0.117v-1.524h0.703v-0.117h-1.523v0.117H187.576z"/>
	<polyline fill="#FFFFFF" points="190.39,11.955 189.686,13.362 188.982,11.955 188.749,11.955 188.749,13.596 188.982,13.596 
		188.982,12.189 189.568,13.596 189.804,13.596 190.507,12.189 190.507,13.596 190.624,13.596 190.624,11.955 190.39,11.955 	"/>
	<polyline fill="none" stroke="#FFFFFF" stroke-width="0.1172" stroke-linecap="round" stroke-linejoin="round" points="
		42.428,13.596 45.243,20.045 44.539,20.045 43.718,18.169 40.318,18.169 39.38,20.045 38.677,20.045 41.608,13.596 42.428,13.596 	
		"/>
	<polyline fill="none" stroke="#FFFFFF" stroke-width="0.1172" stroke-linecap="round" stroke-linejoin="round" points="
		120.864,13.596 118.049,19.224 115.237,13.596 114.181,13.596 114.181,20.045 114.885,20.045 114.885,14.534 114.885,14.534 
		117.699,20.045 118.402,20.045 121.216,14.534 121.216,20.045 121.919,20.045 121.919,13.596 120.864,13.596 	"/>
	<path fill="none" stroke="#FFFFFF" stroke-width="0.1172" stroke-linecap="round" stroke-linejoin="round" d="M144.313,13.596
		c1.172,0,1.758,0.586,1.758,1.641c0,0.704-0.352,1.173-1.056,1.407c0.822,0.118,1.291,0.704,1.291,1.642
		c0,1.172-0.704,1.758-2.11,1.758h-3.518v-6.448H144.313"/>
	<path fill="none" stroke="#FFFFFF" stroke-width="0.1172" stroke-linecap="round" stroke-linejoin="round" d="M141.265,14.3v2.11
		h2.696c0.938,0,1.407-0.352,1.523-1.173c-0.116-0.703-0.47-1.055-1.289-0.938H141.265"/>
	<polyline fill="none" stroke="#FFFFFF" stroke-width="0.1172" stroke-linecap="round" stroke-linejoin="round" points="
		130.947,13.596 130.947,20.045 131.651,20.045 131.651,14.534 134.463,20.045 135.05,20.045 137.864,14.534 137.864,20.045 
		138.567,20.045 138.567,13.596 137.63,13.596 134.816,19.224 131.885,13.596 130.947,13.596 	"/>
	<polyline fill="none" stroke="#FFFFFF" stroke-width="0.1172" stroke-linecap="round" stroke-linejoin="round" points="
		129.071,13.596 124.03,13.596 124.03,20.045 129.188,20.045 129.188,19.459 124.734,19.459 124.734,16.996 128.954,16.996 
		128.954,16.41 124.734,16.41 124.734,14.3 129.071,14.3 129.071,13.596 	"/>
	<polyline fill="none" stroke="#FFFFFF" stroke-width="0.1172" stroke-linecap="round" stroke-linejoin="round" points="
		153.34,13.596 148.299,13.596 148.299,20.045 153.458,20.045 153.458,19.459 148.885,19.459 148.885,16.996 153.222,16.996 
		153.222,16.41 148.885,16.41 148.885,14.3 153.34,14.3 153.34,13.596 	"/>
	<path fill="none" stroke="#FFFFFF" stroke-width="0.1172" stroke-linecap="round" stroke-linejoin="round" d="M155.92,14.3v2.345
		h2.931c0.82,0,1.289-0.469,1.289-1.29s-0.352-1.172-1.289-1.055H155.92"/>
	<path fill="none" stroke="#FFFFFF" stroke-width="0.1172" stroke-linecap="round" stroke-linejoin="round" d="M158.851,13.596
		c1.289,0,1.992,0.586,1.992,1.759c0,0.821-0.351,1.407-1.172,1.641c0.704,0,1.056,0.586,1.056,1.759l0.234,1.29h-0.704
		c-0.117-0.351-0.117-0.821-0.117-1.29c0-1.055-0.586-1.524-1.523-1.524h-2.696v2.813h-0.587v-6.448H158.851"/>
	<path fill="none" stroke="#FFFFFF" stroke-width="0.1172" stroke-linecap="round" stroke-linejoin="round" d="M144.313,16.996
		h-3.048v2.462h2.813c1.055,0,1.523-0.352,1.523-1.172C145.602,17.465,145.133,16.996,144.313,16.996"/>
	<polyline fill="none" stroke="#FFFFFF" stroke-width="0.1172" stroke-linecap="round" stroke-linejoin="round" points="
		18.628,13.596 21.442,20.045 20.738,20.045 19.917,18.169 16.518,18.169 15.58,20.045 14.876,20.045 17.807,13.596 18.628,13.596 	
		"/>
	<path fill="none" stroke="#FFFFFF" stroke-width="0.1172" stroke-linecap="round" stroke-linejoin="round" d="M31.291,15.472
		c-0.117-1.29-0.938-1.993-2.697-1.993c-1.758,0-2.579,0.586-2.579,1.876c0,0.821,0.821,1.407,2.345,1.758
		c1.642,0.118,2.345,0.586,2.462,1.173c-0.117,0.938-0.703,1.29-1.992,1.29c-1.407,0-2.229-0.469-2.229-1.641h-0.703
		c0.117,1.524,1.056,2.345,2.932,2.345c1.759,0,2.696-0.704,2.696-1.993c0-0.938-0.821-1.524-2.345-1.759
		c-1.642-0.235-2.345-0.704-2.345-1.29c0-0.82,0.586-1.172,1.758-1.172c1.29,0,1.994,0.469,2.11,1.407H31.291"/>
	<polyline fill="none" stroke="#FFFFFF" stroke-width="0.1172" stroke-linecap="round" stroke-linejoin="round" points="32.58,14.3 
		35.042,14.3 35.042,20.045 35.746,20.045 35.746,14.3 38.208,14.3 38.208,13.596 32.58,13.596 32.58,14.3 	"/>
	<polyline fill="none" stroke="#FFFFFF" stroke-width="0.1172" stroke-linecap="round" stroke-linejoin="round" points="
		109.023,14.3 109.023,13.596 103.981,13.596 103.981,20.045 109.14,20.045 109.14,19.459 104.567,19.459 104.567,16.996 
		108.906,16.996 108.906,16.41 104.567,16.41 104.567,14.3 109.023,14.3 	"/>
	<path fill="none" stroke="#FFFFFF" stroke-width="0.1172" stroke-linecap="round" stroke-linejoin="round" d="M50.401,14.3H47.47
		v2.345h2.813c0.938,0,1.407-0.469,1.407-1.29S51.221,14.183,50.401,14.3"/>
	<path fill="none" stroke="#FFFFFF" stroke-width="0.1172" stroke-linecap="round" stroke-linejoin="round" d="M52.394,15.355
		c0,0.821-0.352,1.407-1.173,1.641c0.587,0,1.056,0.586,1.056,1.759c0,0.704,0.117,1.172,0.234,1.29h-0.703l-0.234-1.29
		c0-1.055-0.469-1.524-1.524-1.524H47.47v2.813h-0.586v-6.448h3.399C51.691,13.596,52.394,14.183,52.394,15.355"/>
	<polyline fill="none" stroke="#FFFFFF" stroke-width="0.1172" stroke-linecap="round" stroke-linejoin="round" points="
		60.718,13.596 63.532,20.045 62.829,20.045 61.891,18.169 58.491,18.169 57.669,20.045 56.967,20.045 59.898,13.596 60.718,13.596 
			"/>
	<polyline fill="none" stroke="#FFFFFF" stroke-width="0.1172" stroke-linecap="round" stroke-linejoin="round" points="
		64.939,13.596 64.939,20.045 69.747,20.045 69.747,19.459 65.643,19.459 65.643,13.596 64.939,13.596 	"/>
	<polyline fill="none" stroke="#FFFFFF" stroke-width="0.1172" stroke-linecap="round" stroke-linejoin="round" points="
		71.153,13.596 71.153,20.045 75.96,20.045 75.96,19.459 71.857,19.459 71.857,13.596 71.153,13.596 	"/>
	<polyline fill="none" stroke="#FFFFFF" stroke-width="0.1172" stroke-linecap="round" stroke-linejoin="round" points="
		78.071,13.596 78.071,20.045 77.485,20.045 77.485,13.596 78.071,13.596 	"/>
	<polyline fill="none" stroke="#FFFFFF" stroke-width="0.1172" stroke-linecap="round" stroke-linejoin="round" points="
		83.229,13.596 86.161,20.045 85.339,20.045 84.519,18.169 81.119,18.169 80.298,20.045 79.594,20.045 82.526,13.596 83.229,13.596 
			"/>
	<path fill="none" stroke="#FFFFFF" stroke-width="0.1172" stroke-linecap="round" stroke-linejoin="round" d="M101.871,15.824
		c-0.117-1.524-1.172-2.345-3.048-2.345c-1.173,0-1.993,0.469-2.696,1.172c-0.469,0.586-0.821,1.29-0.821,2.228
		c0,2.228,1.173,3.283,3.518,3.4c1.876,0,2.931-0.938,3.166-2.58h-0.704c-0.234,1.29-1.055,1.876-2.462,1.876
		c-1.876,0-2.696-0.938-2.696-2.697c0-1.875,0.82-2.814,2.696-2.814c1.407,0,2.228,0.586,2.462,1.759H101.871"/>
	<polyline fill="none" stroke="#FFFFFF" stroke-width="0.1172" stroke-linecap="round" stroke-linejoin="round" points="
		92.843,13.596 92.843,19.107 88.388,13.596 87.567,13.596 87.567,20.045 88.271,20.045 88.271,14.652 88.271,14.652 92.726,20.045 
		93.546,20.045 93.546,13.596 92.843,13.596 	"/>
	<polyline fill="none" stroke="#FFFFFF" stroke-width="0.1172" stroke-linecap="round" stroke-linejoin="round" points="
		84.285,17.583 82.877,14.3 81.47,17.583 84.285,17.583 	"/>
	<polyline fill="none" stroke="#FFFFFF" stroke-width="0.1172" stroke-linecap="round" stroke-linejoin="round" points="
		61.657,17.583 60.25,14.3 58.842,17.583 61.657,17.583 	"/>
	<polyline fill="none" stroke="#FFFFFF" stroke-width="0.1172" stroke-linecap="round" stroke-linejoin="round" points="
		43.367,17.583 41.959,14.3 40.553,17.583 43.367,17.583 	"/>
	<polyline fill="none" stroke="#FFFFFF" stroke-width="0.1172" stroke-linecap="round" stroke-linejoin="round" points="
		19.566,17.583 18.159,14.3 16.752,17.583 19.566,17.583 	"/>
</g>
</svg>
