<?xml version="1.0" encoding="UTF-8"?>
<svg width="178px" height="33px" viewBox="0 0 178 33" version="1.1" xmlns="http://www.w3.org/2000/svg" xmlns:xlink="http://www.w3.org/1999/xlink">
    <title>UA logo</title>
    <defs>
        <polygon id="path-1" points="0 0 35.3057244 0 35.3057244 26.8785945 0 26.8785945"></polygon>
        <polygon id="path-3" points="0 0 32.2320305 0 32.2320305 32.2203547 0 32.2203547"></polygon>
    </defs>
    <g id="Check-in" stroke="none" stroke-width="1" fill="none" fill-rule="evenodd">
        <g id="Display-one-reservations-ready-for-check-in---direct-flight" transform="translate(-86.000000, -74.000000)">
            <g id="Group-6" transform="translate(85.000000, 31.000000)">
                <g id="UA-logo" transform="translate(1.000000, 43.000000)">
                    <path d="M176.552369,29.5557083 C175.808485,29.5557083 175.220343,30.1460269 175.220343,30.8853599 C175.220343,31.6250887 175.808485,32.2140221 176.552369,32.2140221 C177.294473,32.2140221 177.884,31.6250887 177.884,30.8853599 C177.884,30.1460269 177.294473,29.5557083 176.552369,29.5557083 M176.552369,32.0107847 C175.942855,32.0107847 175.422195,31.5126848 175.422195,30.8853599 C175.422195,30.2570456 175.942855,29.7617162 176.552369,29.7617162 C177.160301,29.7617162 177.678982,30.2570456 177.678982,30.8853599 C177.678982,31.5126848 177.160301,32.0107847 176.552369,32.0107847" id="Fill-1" fill="#FFFFFE"></path>
                    <g id="Group-8" transform="translate(141.898113, 5.341760)">
                        <mask id="mask-2" fill="white">
                            <use xlink:href="#path-1"></use>
                        </mask>
                        <g id="Clip-3"></g>
                        <path d="M35.3057244,25.19115 C35.3057244,24.8782791 35.0522218,24.8070372 34.7878351,24.8070372 L34.1563545,24.8070372 L34.1563545,26.2609665 L34.3601856,26.2609665 L34.3601856,25.5893133 L34.6071576,25.5893133 L35.0405461,26.2609665 L35.2861329,26.2609665 L34.847995,25.5893133 C35.1064449,25.5819912 35.3057244,25.4782946 35.3057244,25.19115 M34.6071576,25.3870653 L34.3601856,25.3870653 L34.3601856,25.0124515 L34.7476626,25.0124515 C34.905978,25.0124515 35.1020912,25.0385735 35.1020912,25.18739 C35.1020912,25.4191242 34.7836793,25.3870653 34.6071576,25.3870653" id="Fill-2" fill="#FFFFFE" mask="url(#mask-2)"></path>
                        <path d="M26.1220447,26.8904681 C26.381682,26.1855687 26.6161867,25.4333726 26.8089357,24.6685112 C27.1831538,23.1162285 27.3766944,21.5085354 27.3766944,19.8707623 C27.3766944,18.9254214 27.3111914,17.990173 27.1851327,17.0697667 C27.0923203,18.4108962 26.8584093,19.5861904 26.8584093,19.5861904 C26.9134239,19.7633057 27.0107879,20.0540124 27.0561057,20.2337004 L27.0559078,20.234492 C26.9110492,21.6187625 26.6496308,22.963652 26.2835264,24.257089 C26.1074005,23.6074021 25.8709168,22.9820562 25.855679,22.9416857 C25.8554811,22.9408942 25.8550853,22.9401026 25.8548874,22.9395089 C25.3803369,24.2040533 24.6710838,25.6930099 24.0269379,26.8904681 L26.1220447,26.8904681" id="Fill-4" fill="#FFFFFE" mask="url(#mask-2)"></path>
                        <path d="M21.7295833,26.8904681 L22.9406963,26.8904681 C26.3884104,21.7976589 26.5617658,17.2840862 26.5617658,16.4190903 C26.5617658,14.785671 26.2872864,13.2846429 25.8285675,12.0960898 C25.8285675,12.0960898 25.1131796,10.2489446 23.9992328,8.60523478 C24.1207398,8.97252656 24.3542551,9.71720272 24.48348,10.3823254 C24.4919895,10.4266537 24.4989158,10.4658368 24.5050505,10.5020514 C24.7245153,10.8679579 25.7143825,12.6131876 25.8467737,14.5321684 C25.8469716,14.5357305 25.8473674,14.5381052 25.8473674,14.5381052 C25.8473674,14.5381052 25.1478111,13.5585285 24.6291302,12.9395152 C24.6107261,13.9944896 24.4735853,15.0498598 24.2527353,16.069609 C24.2527353,16.069609 25.2889098,17.2696399 25.7525761,18.0436045 C25.7525761,18.0436045 25.4373305,19.7316427 24.7613236,21.3492305 C24.073641,20.3490728 23.1951883,19.3776098 23.1951883,19.3776098 C22.6812569,20.6480911 22.0303826,21.9264881 21.3076727,23.1087085 C21.3076727,23.1087085 22.6208991,24.6451597 22.9090332,25.0830997 C22.5231393,25.7321929 22.1471402,26.2975769 21.7295833,26.8904681" id="Fill-5" fill="#FFFFFE" mask="url(#mask-2)"></path>
                        <path d="M17.4141028,26.8904681 C19.7021564,24.3314972 21.6518108,21.3213274 22.8231471,18.0982233 C23.8391363,15.3017792 24.3924487,11.8867177 23.4926234,8.84884263 C23.4324635,8.64857362 23.3645858,8.44652356 23.285626,8.24328614 C22.9980856,7.50019313 22.6250549,6.85248516 22.2193716,6.34350107 C21.1250163,5.12051444 19.8860002,4.03071065 18.5280497,3.10298228 C18.727725,3.36024484 18.9099856,3.62522527 19.0679052,3.8939657 C19.0679052,3.8939657 20.721114,5.12031654 21.6809013,6.36625892 C20.449801,5.48919148 19.7526194,5.13416914 19.6623797,5.08924714 C19.6588176,5.08766399 19.6550576,5.08608083 19.6518913,5.08410189 C20.1195154,6.23683606 20.2602183,7.19167595 20.2604162,7.1932591 C20.2604162,7.1932591 21.7212717,7.95554786 23.0364771,9.09423154 C23.2185398,9.93646958 23.2937397,10.7992886 23.2814702,11.6630972 C21.9559743,10.4969062 20.4218979,9.58599882 20.4218979,9.58599882 C20.3937969,10.5736892 20.2572499,11.5736489 20.0401598,12.5461014 C20.0401598,12.5461014 21.4889438,13.4633414 22.9003258,14.7490605 C22.9003258,14.7490605 22.4950383,16.5714689 21.8409978,18.0044214 C20.4866093,16.7434391 19.1660608,15.7622792 19.0619684,15.6856941 C19.0619684,15.6856941 18.3895237,17.4388395 17.3005114,19.1987134 C18.656483,20.3783612 19.9309222,21.6011499 19.9309222,21.6011499 C19.1524061,22.815825 18.2713808,23.9723191 17.3210925,25.0536135 L17.3206967,25.054405 L14.8951065,22.6391054 C13.909593,23.8587278 12.8290902,25.007702 11.6816992,26.065249 C11.7361201,26.1263983 12.2251169,26.6686287 12.425188,26.8904681 L17.4141028,26.8904681" id="Fill-6" fill="#FFFFFE" mask="url(#mask-2)"></path>
                        <path d="M18.0364803,3.37271218 C17.8795501,3.15799689 17.7020389,2.93932371 17.4984057,2.74479363 C17.3199051,2.57440666 17.1457581,2.42064281 16.962508,2.2825126 C14.9441843,0.760903498 11.2299066,0 11.2299066,0 C11.5843352,0.188989035 11.8793956,0.382727533 11.8811767,0.384112793 C11.8989871,0.388268573 13.3964531,0.763871912 14.7247195,1.41355883 C14.7247195,1.41355883 13.5163771,1.13907946 12.7414231,1.03221655 C13.0618139,1.31362222 13.3661753,1.63757515 13.6329368,1.97597436 C13.6329368,1.97597436 16.0975121,2.42539227 17.179598,3.01867931 C17.179598,3.01867931 17.6974874,3.5518065 18.1209811,4.48665907 C16.4317556,3.8007575 14.5189095,3.44316254 14.5189095,3.44316254 C14.7728078,4.01230648 14.9546727,4.62162296 15.0660872,5.25547834 C15.0660872,5.25547834 17.1691096,5.77039925 18.7494933,6.52912591 C18.8860404,7.27954101 18.9361077,8.05528658 18.9072151,8.84013528 C17.0406763,7.90409535 15.18799,7.31654724 15.18799,7.31654724 C15.150588,8.12553905 15.0205715,8.9640171 14.8020962,9.82050354 C14.8020962,9.82050354 17.3503808,10.9585935 18.495595,11.6494425 C18.2426861,12.661078 17.8876638,13.6517368 17.4610037,14.605983 C15.7169614,13.4726424 13.8708057,12.4651627 13.8708057,12.4651627 C13.4071394,13.5785159 12.2664768,15.4023095 12.2664768,15.4023095 L12.2666747,15.4027053 L12.2666747,15.4023095 L12.2676642,15.403299 C12.2963588,15.4230884 14.1947587,16.7262223 15.6510626,17.8827164 C14.9275612,18.9790507 14.1118409,20.0320462 13.2240872,21.0329954 C12.9177469,20.7401119 10.119126,18.2557471 10.119126,18.2557471 C9.27451322,19.2351259 8.33392172,20.1891742 7.30427779,21.1024563 C7.30427779,21.1024563 7.30447569,21.1026542 7.30487148,21.10305 L10.0027642,24.1561629 C10.0029621,24.1565587 10.00316,24.1565587 10.0033578,24.1567566 L10.00316,24.1571524 C8.25318086,25.5978227 6.5087428,26.6896055 6.5087428,26.6896055 L4.25749749,23.4940087 C4.25749749,23.4940087 2.67355169,24.6989869 0,25.964125 L0,26.8904681 L8.77957963,26.8904681 C18.5793043,19.4759632 22.0569004,8.87377731 18.0364803,3.37271218" id="Fill-7" fill="#FFFFFE" mask="url(#mask-2)"></path>
                    </g>
                    <path d="M154.963885,7.60191079 C152.529983,4.32596891 148.72032,4.79398888 147.584209,4.95289798 C146.336288,5.12783653 145.392728,5.40093063 145.392728,5.40093063 C145.671561,5.42705267 146.051122,5.47692203 146.325008,5.53134296 C146.527058,5.48384833 148.278818,5.08449768 149.551872,5.25132256 C149.553653,5.25132256 149.555434,5.25152045 149.555434,5.25152045 C148.61979,5.35304021 147.343372,5.73893406 147.210189,5.77970028 C147.208804,5.78009607 147.208408,5.78088764 147.207023,5.78148133 C147.208408,5.78207501 147.209595,5.78266869 147.210981,5.78306448 C147.25709,5.79652129 147.624778,5.90813366 148.096755,6.18498776 C148.234688,6.14798153 149.967846,5.68827312 151.620659,5.65581846 L151.620659,5.65621425 C151.620659,5.65621425 152.231361,5.92713151 152.819898,6.33103374 C150.684223,6.32292007 148.916236,6.73295701 148.868345,6.74423699 C149.118484,6.96607647 149.367237,7.23303585 149.590857,7.55382248 C151.931749,7.20315382 153.951853,7.35513662 153.951853,7.35513662 C153.951853,7.35513662 154.226531,7.69017164 154.350017,7.87025543 C154.506155,8.09704227 154.66546,8.37884372 154.789144,8.62640946 C152.399769,8.34698274 150.114288,8.54685596 150.112704,8.54685596 C150.270426,8.9537266 150.377091,9.38889612 150.435668,9.84642769 C150.699659,9.84444874 152.723524,9.84820873 155.300899,10.3122708 C155.383223,10.9031831 155.391534,11.5362469 155.326625,12.204338 C154.888487,12.0903509 152.772404,11.5617753 150.463175,11.3326137 C150.41667,11.9096734 150.306839,12.5104805 150.138035,13.1265253 C150.396683,13.1874768 153.249329,13.8674415 154.847325,14.5147537 C154.816454,14.6150861 154.783999,14.7158143 154.750357,14.8171362 C154.521591,15.5032356 154.235634,16.1921056 153.897235,16.8787987 C152.610724,16.2453392 149.4553,15.0118641 149.4553,15.0118641 C149.139856,15.7175551 148.75416,16.4319535 148.303357,17.1449665 C148.303357,17.1449665 151.008572,18.6887398 152.311508,19.5434452 C151.709909,20.4029 151.030538,21.2467212 150.28131,22.0622436 C149.336563,21.2146624 146.973112,19.3833487 146.794611,19.2452185 C146.032322,20.1527617 145.072337,21.1072058 144.784797,21.389403 L147.621018,24.6415976 C147.594896,24.665147 147.567586,24.6890922 147.540079,24.7132353 C146.926211,25.2220215 146.264848,25.7009256 145.705995,26.0848405 C145.220956,26.4143345 144.820616,26.6696181 144.682288,26.7586706 C144.649437,26.7086033 142.792595,23.7435533 142.513564,23.2717734 C142.309337,23.4229646 142.103923,23.5676253 141.898113,23.7097134 L141.898113,29.8050551 C142.231961,29.644167 142.566204,29.47754 142.899656,29.3004247 C144.49884,28.5130033 146.050529,27.5138351 147.494959,26.3595178 C148.420313,25.6245385 149.391182,24.7623131 150.349584,23.7669049 C151.488465,22.5989328 152.477343,21.3753525 153.302562,20.1355449 C156.430875,15.5182756 157.268759,10.7041015 154.963885,7.60191079" id="Fill-9" fill="#FFFFFE"></path>
                    <path d="M148.650068,7.35493873 C147.490803,6.02489129 145.56173,5.56914077 143.320181,5.8895316 C143.25923,5.89863474 143.195508,5.90714419 143.138316,5.91684101 C142.967534,5.94573358 142.794376,5.98076086 142.619833,6.01915235 C142.273716,6.09949743 142.036441,6.17865514 141.898113,6.23248238 L141.898113,6.90334399 C142.118765,6.72919702 142.344167,6.56355951 142.576297,6.40801461 C143.022944,6.31243167 143.456926,6.25148024 143.875275,6.22417083 C143.227765,6.59363944 142.480912,7.09490565 141.898113,7.55758247 L141.898113,8.07388864 L141.918298,8.0857623 C141.918298,8.0857623 143.561216,6.785399 144.866527,6.2249624 C145.181179,6.24772024 145.482572,6.29185067 145.769519,6.35755157 C143.819073,7.18514544 142.378996,8.21142516 142.279257,8.28326079 C142.479526,8.40199735 142.661985,8.55041806 142.686128,8.57000959 C142.711261,8.55417805 144.60214,7.37156185 146.683394,6.66270454 C146.965592,6.79192951 147.238488,6.95242177 147.474576,7.13428661 C145.208488,7.77111039 143.030068,8.90840881 143.030068,8.90840881 C143.152763,9.05109058 143.261011,9.20564601 143.354615,9.37068984 C143.369259,9.36495091 143.382914,9.35960776 143.393402,9.35525409 C145.712723,8.36261639 148.1771,7.8538302 148.1771,7.8538302 C148.36985,8.11782117 148.528561,8.41268364 148.650068,8.73762605 C148.650068,8.73762605 146.438203,8.99053493 143.593077,9.90282756 C143.718542,10.2960435 143.752976,10.5916975 143.753372,10.5942702 C143.753372,10.5942702 146.435631,9.99425471 148.909309,9.92776223 C148.943743,10.3251339 148.931473,10.7711876 148.87448,11.2289171 C147.409271,11.1515404 143.919801,11.3373632 143.78266,11.3480495 C143.78266,11.3480495 143.770193,11.8507009 143.639385,12.3238661 C143.639385,12.3238661 146.189252,12.4055965 148.508573,12.8379955 C148.329281,13.3934847 148.10012,13.9410582 147.828609,14.4757685 C146.283054,14.0115086 143.937216,13.4477078 143.320181,13.3060155 C143.157512,13.7061577 142.953681,14.1029357 142.711458,14.4874443 C142.711458,14.4874443 145.577759,15.7381361 146.677458,16.3500252 L146.679832,16.3500252 L146.679437,16.3510147 C146.202116,17.0660067 145.255587,18.0663623 145.255587,18.0663623 C144.981108,17.8611459 144.721669,17.6691885 144.476873,17.4898963 C143.716761,16.9579565 142.58916,16.1685562 141.903852,15.6914331 C141.90029,15.6892562 141.900092,15.6890583 141.898113,15.6876731 L141.898113,18.057655 L143.384497,19.7939793 C142.894906,20.1883826 142.396015,20.5481544 141.898113,20.87092 L141.898113,22.2848746 C141.916517,22.273001 141.934723,22.2613252 141.952732,22.2492537 C142.631509,21.7869726 143.302371,21.2720517 143.956016,20.7035014 C149.084446,16.2409855 151.186083,10.2645783 148.650068,7.35493873" id="Fill-10" fill="#FFFFFE"></path>
                    <g id="Group-14" transform="translate(141.897519, 0.000000)">
                        <mask id="mask-4" fill="white">
                            <use xlink:href="#path-3"></use>
                        </mask>
                        <g id="Clip-12"></g>
                        <path d="M0.000593682833,14.1474619 C1.3106538,12.2821105 1.50023652,10.1412902 0.349877083,9.09621048 C0.241628913,8.99805492 0.124475501,8.91394985 0.000593682833,8.84132265 L0.000593682833,14.1474619" id="Fill-11" fill="#FFFFFE" mask="url(#mask-4)"></path>
                        <path d="M7.15368025,4.11916939 C18.776407,4.11916939 28.2323892,13.6105747 28.2323892,25.2774319 C28.2323892,27.6436538 27.832247,29.998002 27.0580846,32.2322284 L32.2320305,32.2322284 L32.2320305,0 L0,0 L0,5.37619384 L0.0251325733,5.36709071 C2.31338411,4.53910105 4.71186275,4.11916939 7.15368025,4.11916939" id="Fill-13" fill="#FFFFFE" mask="url(#mask-4)"></path>
                    </g>
                    <path d="M128.411024,10.2768477 C127.624197,9.57649989 126.619685,9.03268642 125.396896,8.64659468 C124.174306,8.26050294 122.704941,8.06755602 120.988801,8.06755602 L112.300451,8.06755602 L112.300451,24.1563608 L120.988801,24.1563608 C124.077535,24.1563608 126.469879,23.4878739 128.16425,22.1507023 C129.859215,20.8139265 130.706598,18.8009459 130.706598,16.1121563 C130.706598,14.9107401 130.520577,13.8130206 130.148536,12.8189976 C129.776693,11.8249747 129.197456,10.9779872 128.411024,10.2768477 M125.504353,18.128699 C125.325259,18.6721167 125.035739,19.1082757 124.635201,19.4367802 C124.234861,19.766472 123.71618,20.0021641 123.07995,20.1448459 C122.443522,20.2881214 121.674901,20.3593633 120.774086,20.3593633 L116.977287,20.3593633 L116.977287,11.8643556 L120.774086,11.8643556 C121.703398,11.8643556 122.486465,11.9433155 123.123091,12.1002456 C123.758926,12.2581652 124.274044,12.5077099 124.667458,12.8512544 C125.060674,13.1944031 125.343267,13.6341242 125.515237,14.1706155 C125.686812,14.7071069 125.772302,15.3540233 125.772302,16.1121563 C125.772302,16.9128366 125.682656,17.5848855 125.504353,18.128699" id="Fill-15" fill="#FFFFFE"></path>
                    <polyline id="Fill-16" fill="#FFFFFE" points="93.8303845 17.5492646 102.625598 17.5492646 102.625598 14.3958192 93.8303845 14.3958192 93.8303845 11.7361201 104.277223 11.7361201 104.191733 8.06735813 89.153549 8.06735813 89.153549 24.1561629 104.62057 24.1561629 104.706654 20.5309376 93.8303845 20.5309376 93.8303845 17.5492646"></polyline>
                    <polyline id="Fill-17" fill="#FFFFFE" points="65.4066314 8.06755602 65.2783959 11.8643556 71.4348869 11.8643556 71.4348869 24.1563608 76.1326992 24.1563608 76.1326992 11.8643556 82.2893881 11.8643556 82.1823273 8.06755602 65.4066314 8.06755602"></polyline>
                    <polygon id="Fill-18" fill="#FFFFFE" points="53.3938551 24.1563608 58.1561809 24.1563608 58.1561809 8.06735813 53.3938551 8.06735813"></polygon>
                    <polyline id="Fill-19" fill="#FFFFFE" points="40.1792668 16.0688175 40.2224078 17.7851545 40.1792668 17.8278997 38.9564781 16.5837384 30.2473488 8.06735813 26.3858377 8.06735813 26.3858377 24.1563608 30.6332426 24.1563608 30.6332426 15.704692 30.5904975 13.9667844 30.6546152 13.9454119 31.8777997 15.1682006 41.3591125 24.1563608 44.4270675 24.1563608 44.4270675 8.06735813 40.1792668 8.06735813 40.1792668 16.0688175"></polyline>
                    <path d="M13.4502804,17.1418002 C13.4502804,18.3572669 13.1071317,19.2620395 12.4206365,19.8555245 C11.7343391,20.4490094 10.6328595,20.7456529 9.11698938,20.7456529 C7.58667293,20.7456529 6.46401869,20.4490094 5.74902666,19.8555245 C5.03363885,19.2620395 4.67624178,18.3572669 4.67624178,17.1418002 L4.67624178,8.06755602 L0,8.06755602 L0,17.0990551 C0,19.5871798 0.782869763,21.4430324 2.34900508,22.6658211 C3.9149425,23.888412 6.17093726,24.4995095 9.11698938,24.4995095 C12.0772899,24.4995095 14.3154742,23.8919741 15.8315422,22.6765074 C17.3472145,21.460645 18.1055454,19.6012303 18.1055454,17.0990551 L18.1055454,8.06755602 L13.4502804,8.06755602 L13.4502804,17.1418002" id="Fill-20" fill="#FFFFFE"></path>
                </g>
            </g>
        </g>
    </g>
</svg>