<?xml version="1.0" encoding="utf-8"?>
<!-- Generator: Adobe Illustrator 16.0.0, SVG Export Plug-In . SVG Version: 6.00 Build 0)  -->
<!DOCTYPE svg PUBLIC "-//W3C//DTD SVG 1.1//EN" "http://www.w3.org/Graphics/SVG/1.1/DTD/svg11.dtd">
<svg version="1.1" id="Layer_1" xmlns="http://www.w3.org/2000/svg" xmlns:xlink="http://www.w3.org/1999/xlink" x="0px" y="0px"
	 width="32px" height="32px" viewBox="0 0 32 32" enable-background="new 0 0 32 32" xml:space="preserve">
<path fill="#FFFFFF" d="M23.858,8.3c0,2.272-1.842,4.114-4.114,4.114c-2.271,0-4.114-1.842-4.114-4.114
	c0-2.271,1.842-4.113,4.114-4.113C22.017,4.187,23.858,6.028,23.858,8.3z M22.17,13.152h-0.316H15.63c0,0-3.165,7.277-4.43,8.438
	c-1.266,1.161-6.117,0.633-6.117,0.633v3.692h7.278c0,0,3.27-1.898,3.27-4.325v6.224h6.54v-10.02h0.634v10.02h4.113v-10.02v-4.642
	H22.17z M9.829,13.68H5.083l0.712,6.803h3.401L9.829,13.68z"/>
</svg>
